<svg id="visual" viewBox="0 0 900 450" width="900" height="450" xmlns="http://www.w3.org/2000/svg" xmlns:xlink="http://www.w3.org/1999/xlink" version="1.1"><rect x="0" y="0" width="900" height="450" fill="#0a0a0b"></rect><path d="M0 236L21.5 229.8C43 223.7 86 211.3 128.8 212.5C171.7 213.7 214.3 228.3 257.2 242C300 255.7 343 268.3 385.8 267.3C428.7 266.3 471.3 251.7 514.2 242.7C557 233.7 600 230.3 642.8 232.2C685.7 234 728.3 241 771.2 244.7C814 248.3 857 248.7 878.5 248.8L900 249L900 0L878.5 0C857 0 814 0 771.2 0C728.3 0 685.7 0 642.8 0C600 0 557 0 514.2 0C471.3 0 428.7 0 385.8 0C343 0 300 0 257.2 0C214.3 0 171.7 0 128.8 0C86 0 43 0 21.5 0L0 0Z" fill="#242140"></path><path d="M0 202L21.5 205.7C43 209.3 86 216.7 128.8 219.7C171.7 222.7 214.3 221.3 257.2 212.5C300 203.7 343 187.3 385.8 191.7C428.7 196 471.3 221 514.2 230.5C557 240 600 234 642.8 226.2C685.7 218.3 728.3 208.7 771.2 200.5C814 192.3 857 185.7 878.5 182.3L900 179L900 0L878.5 0C857 0 814 0 771.2 0C728.3 0 685.7 0 642.8 0C600 0 557 0 514.2 0C471.3 0 428.7 0 385.8 0C343 0 300 0 257.2 0C214.3 0 171.7 0 128.8 0C86 0 43 0 21.5 0L0 0Z" fill="#2f2650"></path><path d="M0 162L21.5 160C43 158 86 154 128.8 154C171.7 154 214.3 158 257.2 157C300 156 343 150 385.8 148.3C428.7 146.7 471.3 149.3 514.2 158.2C557 167 600 182 642.8 184.8C685.7 187.7 728.3 178.3 771.2 173C814 167.7 857 166.3 878.5 165.7L900 165L900 0L878.5 0C857 0 814 0 771.2 0C728.3 0 685.7 0 642.8 0C600 0 557 0 514.2 0C471.3 0 428.7 0 385.8 0C343 0 300 0 257.2 0C214.3 0 171.7 0 128.8 0C86 0 43 0 21.5 0L0 0Z" fill="#3c2b60"></path><path d="M0 133L21.5 131C43 129 86 125 128.8 124.3C171.7 123.7 214.3 126.3 257.2 133.5C300 140.7 343 152.3 385.8 159C428.7 165.7 471.3 167.3 514.2 162.7C557 158 600 147 642.8 140.2C685.7 133.3 728.3 130.7 771.2 128.7C814 126.7 857 125.3 878.5 124.7L900 124L900 0L878.5 0C857 0 814 0 771.2 0C728.3 0 685.7 0 642.8 0C600 0 557 0 514.2 0C471.3 0 428.7 0 385.8 0C343 0 300 0 257.2 0C214.3 0 171.7 0 128.8 0C86 0 43 0 21.5 0L0 0Z" fill="#4c2f6f"></path><path d="M0 112L21.5 109.7C43 107.3 86 102.7 128.8 103.3C171.7 104 214.3 110 257.2 108C300 106 343 96 385.8 98.2C428.7 100.3 471.3 114.7 514.2 115.7C557 116.7 600 104.3 642.8 100.7C685.7 97 728.3 102 771.2 101C814 100 857 93 878.5 89.5L900 86L900 0L878.5 0C857 0 814 0 771.2 0C728.3 0 685.7 0 642.8 0C600 0 557 0 514.2 0C471.3 0 428.7 0 385.8 0C343 0 300 0 257.2 0C214.3 0 171.7 0 128.8 0C86 0 43 0 21.5 0L0 0Z" fill="#5e327d"></path><path d="M0 49L21.5 55C43 61 86 73 128.8 77C171.7 81 214.3 77 257.2 78.2C300 79.3 343 85.7 385.8 84.8C428.7 84 471.3 76 514.2 70.3C557 64.7 600 61.3 642.8 64.7C685.7 68 728.3 78 771.2 77.7C814 77.3 857 66.7 878.5 61.3L900 56L900 0L878.5 0C857 0 814 0 771.2 0C728.3 0 685.7 0 642.8 0C600 0 557 0 514.2 0C471.3 0 428.7 0 385.8 0C343 0 300 0 257.2 0C214.3 0 171.7 0 128.8 0C86 0 43 0 21.5 0L0 0Z" fill="#71338a"></path><path d="M0 51L21.5 51.5C43 52 86 53 128.8 53.5C171.7 54 214.3 54 257.2 50.8C300 47.7 343 41.3 385.8 39.8C428.7 38.3 471.3 41.7 514.2 44.8C557 48 600 51 642.8 48.8C685.7 46.7 728.3 39.3 771.2 36.2C814 33 857 34 878.5 34.5L900 35L900 0L878.5 0C857 0 814 0 771.2 0C728.3 0 685.7 0 642.8 0C600 0 557 0 514.2 0C471.3 0 428.7 0 385.8 0C343 0 300 0 257.2 0C214.3 0 171.7 0 128.8 0C86 0 43 0 21.5 0L0 0Z" fill="#863296"></path></svg>